<svg xmlns="http://www.w3.org/2000/svg" version="1.1" xmlns:xlink="http://www.w3.org/1999/xlink" xmlns:svgjs="http://svgjs.dev/svgjs" width="1000" height="1000" viewBox="0 0 1000 1000"><rect width="1000" height="1000" fill="#000000"></rect><g transform="matrix(0.7,0,0,0.7,150.41760361018538,30.680325625237742)"><svg viewBox="0 0 184 247" data-background-color="#ffffff" preserveAspectRatio="xMidYMid meet" height="1342" width="1000" xmlns="http://www.w3.org/2000/svg" xmlns:xlink="http://www.w3.org/1999/xlink"><g id="tight-bounds" transform="matrix(1,0,0,1,-0.10977009182016673,-0.10000045713618988)"><svg viewBox="0 0 184.2194564356695 247.2" height="247.2" width="184.2194564356695"><g><svg viewBox="0 0 460.62179059681836 618.0981577008183" height="247.2" width="184.2194564356695"><g transform="matrix(1,0,0,1,32.55089529840919,511.1279758826365)"><svg viewBox="0 0 395.52 106.9701818181818" height="106.9701818181818" width="395.52"><g id="textblocktransform"><svg viewBox="0 0 395.52 106.9701818181818" height="106.9701818181818" width="395.52" id="textblock"><g><svg viewBox="0 0 395.52 106.9701818181818" height="106.9701818181818" width="395.52"><g transform="matrix(1,0,0,1,0,0)"><svg width="395.52" viewBox="4.849999904632568 -35.150001525878906 131.989990234375 35.70000076293945" height="106.9701818181818" data-palette-color="#4790fc"><path d="M18.2-34.55Q22.85-34.25 26.48-31.95 30.1-29.65 32.1-25.78 34.1-21.9 34.1-17.1L34.1-17.1Q34.1-12 31.88-8 29.65-4 25.7-1.75 21.75 0.5 16.7 0.5L16.7 0.5 14.2 0.5Q13.8 0.5 12.45 0.5 11.1 0.5 7.65 0.2L7.65 0.2 4.85-0.05 4.85-34.6 18.2-34.55ZM15.1-3.25Q22.3-3.25 26.15-6.8 30-10.35 30-16.95L30-16.95Q30-23.15 26.73-26.8 23.45-30.45 17.65-30.75L17.65-30.75 8.95-30.75 8.95-3.5Q12.35-3.25 15.1-3.25L15.1-3.25ZM40.6 0L40.6-25.05 44.7-25 44.7 0.05 40.6 0ZM42.55-29.9Q41.55-29.9 40.75-30.7 39.95-31.5 39.95-32.5L39.95-32.5Q39.95-33.55 40.75-34.35 41.55-35.15 42.55-35.15L42.55-35.15Q43.6-35.15 44.42-34.35 45.25-33.55 45.25-32.5L45.25-32.5Q45.25-31.5 44.42-30.7 43.6-29.9 42.55-29.9L42.55-29.9ZM51.95-20.45Q51.55-21.35 50.75-22.13 49.95-22.9 49.15-23.1L49.15-23.1 51.34-26.45Q54.45-24.7 56-20.55L56-20.55 61.5-6 68.55-25.4 72.65-25.4 63.34 0.05 59.7 0.05 51.95-20.45ZM77.34 0L77.34-25.05 81.44-25 81.44 0.05 77.34 0ZM79.29-29.9Q78.29-29.9 77.49-30.7 76.69-31.5 76.69-32.5L76.69-32.5Q76.69-33.55 77.49-34.35 78.29-35.15 79.29-35.15L79.29-35.15Q80.34-35.15 81.17-34.35 81.99-33.55 81.99-32.5L81.99-32.5Q81.99-31.5 81.17-30.7 80.34-29.9 79.29-29.9L79.29-29.9ZM89.39-17.7Q89.39-19.45 88.92-20.85 88.44-22.25 87.14-23.4L87.14-23.4 89.79-25.9Q91.84-24.7 92.84-21.9L92.84-21.9Q96.09-25.8 100.99-25.8L100.99-25.8Q104.94-25.8 107.27-23.65 109.59-21.5 109.59-17.4L109.59-17.4 109.59 0.05 105.49 0.1 105.49-16.85Q105.49-19.3 104.44-20.7 103.39-22.1 100.74-22.1L100.74-22.1Q98.44-22.1 96.87-21.03 95.29-19.95 93.49-17.55L93.49-17.55 93.49 0.05 89.39 0.05 89.39-17.7ZM119.19-11.05Q119.34-7.95 120.86-5.55 122.39-3.15 126.49-3.15L126.49-3.15Q128.64-3.15 130.49-3.83 132.34-4.5 134.39-5.9L134.39-5.9 136.29-2.8Q134.44-1.3 131.74-0.38 129.04 0.55 126.29 0.55L126.29 0.55Q122.79 0.55 120.24-1.07 117.69-2.7 116.34-5.53 114.99-8.35 114.99-11.95L114.99-11.95Q114.99-15.55 116.31-18.75 117.64-21.95 120.21-23.9 122.79-25.85 126.34-25.85L126.34-25.85Q129.24-25.85 131.64-24.45 134.04-23.05 135.44-20.58 136.84-18.1 136.84-15.1L136.84-15.1Q136.84-13.85 136.64-11.05L136.64-11.05 119.19-11.05ZM119.39-14.75L132.79-14.75 132.79-15.25Q132.79-17.2 131.91-18.78 131.04-20.35 129.56-21.25 128.09-22.15 126.29-22.15L126.29-22.15Q123.74-22.15 121.86-20.25 119.99-18.35 119.39-14.75L119.39-14.75Z" opacity="1" transform="matrix(1,0,0,1,0,0)" fill="#ffffff" class="wordmark-text-0" data-fill-palette-color="primary" id="text-0"></path></svg></g></svg></g></svg></g></svg></g><g><svg viewBox="0 0 460.62179059681836 460.62179059681836" height="460.62179059681836" width="460.62179059681836"><g><svg></svg></g><g id="icon-0"><svg viewBox="0 0 460.62179059681836 460.62179059681836" height="460.62179059681836" width="460.62179059681836"><g><path d="M0 230.311c0-127.197 103.114-230.311 230.311-230.311 127.197 0 230.311 103.114 230.311 230.311 0 127.197-103.114 230.311-230.311 230.311-127.197 0-230.311-103.114-230.311-230.311zM230.311 450.975c121.869 0 220.664-98.795 220.664-220.664 0-121.869-98.795-220.664-220.664-220.664-121.869 0-220.664 98.795-220.664 220.664 0 121.869 98.795 220.664 220.664 220.664z" data-fill-palette-color="tertiary" fill="#ffffff" stroke="transparent"></path></g><g transform="matrix(1,0,0,1,116.7870305541441,91.5616404973502)"><svg viewBox="0 0 227.04772948853017 277.49850960211796" height="277.49850960211796" width="227.04772948853017"><g><svg xmlns="http://www.w3.org/2000/svg" xmlns:xlink="http://www.w3.org/1999/xlink" version="1.1" x="0" y="0" viewBox="13.181248664855957 5.000000476837158 73.63749694824219 90" enable-background="new 0 0 100 100" xml:space="preserve" height="277.49850960211796" width="227.04772948853017" class="icon-s-0" data-fill-palette-color="accent" id="s-0"><path fill-rule="evenodd" clip-rule="evenodd" d="M60.621 65.175C81.42 68.154 86.819 80.374 86.819 95H13.181c0-14.626 5.399-26.847 26.198-29.825 2.319 3.746 5.722 5.961 10.621 5.961C54.9 71.136 58.303 68.92 60.621 65.175z" fill="#ffffff" data-fill-palette-color="accent"></path><path fill-rule="evenodd" clip-rule="evenodd" d="M50 5c6.376 0 12.192 0.867 16.441 2.269 5.148 1.698 8.332 4.41 8.332 7.731 0 2.834-2.318 5.223-6.194 6.918-0.19-0.203-0.383-0.403-0.58-0.599-1.298-1.298-2.734-2.456-4.287-3.45 0.352-0.101 0.694-0.206 1.024-0.315 2.831-0.934 4.582-1.859 4.582-2.554 0-0.695-1.751-1.62-4.582-2.554-3.73-1.23-8.937-1.992-14.736-1.991-5.799 0-11.006 0.761-14.736 1.991-2.831 0.934-4.582 1.859-4.582 2.554 0 0.695 1.751 1.62 4.582 2.554 0.33 0.109 0.672 0.214 1.023 0.315-1.552 0.994-2.989 2.152-4.286 3.45-0.197 0.197-0.39 0.397-0.58 0.599-3.877-1.695-6.194-4.085-6.194-6.918 0-3.322 3.184-6.033 8.332-7.731C37.808 5.867 43.624 5 50 5L50 5z" fill="#ffffff" data-fill-palette-color="accent"></path><path fill-rule="evenodd" clip-rule="evenodd" d="M50 62.045c12.518 0 22.727-10.209 22.727-22.728 0-12.518-10.21-22.727-22.727-22.727-12.518 0-22.727 10.21-22.727 22.727C27.273 51.835 37.482 62.045 50 62.045z" fill="#ffffff" data-fill-palette-color="accent"></path></svg></g></svg></g></svg></g></svg></g><g></g></svg></g><defs></defs></svg><rect width="184.2194564356695" height="247.2" fill="none" stroke="none" visibility="hidden"></rect></g></svg></g></svg>